Mickey And Donald Have A Farm 2012 UNiQUE


"Mickey Mouse Clubhouse" Mickey and Donald Have a Farm! (2012)
Genre: Animation | Comedy | Family
Cast: Wayne Allwine, Tony Anselmo, Bill Farmer

ooooo ooo ooooo ooo o8o .oooooo. ooooo ooo oooooooooooo
`888' `8' `888b. `8' `"' d8P' `Y8b `888' `8' `888' `8
888 8 8 `88b. 8 oooo 888 888 888 8 888
888 8 8 `88b. 8 `888 888 888 888 8 888oooo8
888 8 8 `88b.8 888 888 888 888 8 888 "
`88. .8' 8 `888 888 `88b d88b `88. .8' 888 o
`YbodP' o8o `8 o888o `Y8bood8P'Ybd' `YbodP' o888ooooood8




.........why be the same as everyone else when YOU can be UNiQUE.........






Format : AVI
Format/Info : Audio Video Interleave
File size : 1.44 GiB
Duration : 1h 41mn
Overall bit rate : 2 027 Kbps
Writing application : VirtualDubMod 1.5.10.2 (build 2540/release)
Writing library : VirtualDubMod build 2540/release

Video
ID : 0
Format : MPEG-4 Visual
Format profile : Advanced Simple@L5
Format settings, BVOP : 2
Format settings, QPel : No
Format settings, GMC : No warppoints
Format settings, Matrix : Default (H.263)
Muxing mode : Packed bitstream
Codec ID : XVID
Codec ID/Hint : XviD
Duration : 1h 41mn
Bit rate : 1 633 Kbps
Width : 720 pixels
Height : 400 pixels
Display aspect ratio : 16:9
Frame rate : 29.970 fps
Color space : YUV
Chroma subsampling : 4:2:0
Bit depth : 8 bits
Scan type : Progressive
Compression mode : Lossy
Bits/(Pixel*Frame) : 0.189
Stream size : 1.16 GiB (81%)
Writing library : XviD 64

Audio
ID : 1
Format : AC-3
Format/Info : Audio Coding 3
Mode extension : CM (complete main)
Format settings, Endianness : Big
Codec ID : 2000
Duration : 1h 41mn
Bit rate mode : Constant
Bit rate : 384 Kbps
Channel(s) : 6 channels
Channel positions : Front: L C R, Side: L R, LFE
Sampling rate : 48.0 KHz
Bit depth : 16 bits
Compression mode : Lossy
Stream size : 278 MiB (19%)
Alignment : Split accross interleaves
Interleave, duration : 34 ms (1.01 video frame)
Interleave, preload duration : 500 ms




 
http://www.imdb.com/title/tt2474580/



When the powerful wind from Pete's Giant Windmill accidentally sends all of the animals on the new Clubhouse Farm flying to different places, Mickey and his pals set out to find and rescue them.




Source Used ..............Mickey And Donald Have A Farm 2012 TTR DVD-R LATINO..............................Thanks



++++++++++++++++++++++++++++++++++++++++++++++++++++++++++++++++++++++++++++++++++++++++++++++++++++++++++++++++++++++++++++++++++++++++++++++++++++++++++++++++++++++++++++





Reasons for READNFO is the source came as 4 vobs but the last vob had no audio on it ......So instead of not releasing i cut the video at 1hr41mn when the audio ran out at the end of episode 3 on the release ,i dont see this anywhere much yet but 1hr41mn of keeping the kids quiet is better than non

Enjoy


Greets


INSPiRAL,LEGION,DiLLON,THORN,DiRTYMARY
 
http://img38.imageshack.us/img38/4832/802411.jpg 
http://img842.imageshack.us/img842/1310/802412.jpg